<svg width="24" height="24" viewBox="0 0 24 24" fill="none" xmlns="http://www.w3.org/2000/svg">
<path d="M12 7C9.24 7 7 9.24 7 12C7 14.76 9.24 17 12 17C14.76 17 17 14.76 17 12C17 9.24 14.76 7 12 7ZM12 15.5C10.07 15.5 8.5 13.93 8.5 12C8.5 10.07 10.07 8.5 12 8.5C13.93 8.5 15.5 10.07 15.5 12C15.5 13.93 13.93 15.5 12 15.5ZM12 2C11.45 2 11 2.45 11 3V5C11 5.55 11.45 6 12 6C12.55 6 13 5.55 13 5V3C13 2.45 12.55 2 12 2ZM21 11H19C18.45 11 18 11.45 18 12C18 12.55 18.45 13 19 13H21C21.55 13 22 12.55 22 12C22 11.45 21.55 11 21 11ZM3 11H5C5.55 11 6 11.45 6 12C6 12.55 5.55 13 5 13H3C2.45 13 2 12.55 2 12C2 11.45 2.45 11 3 11ZM12 18C11.45 18 11 18.45 11 19V21C11 21.55 11.45 22 12 22C12.55 22 13 21.55 13 21V19C13 18.45 12.55 18 12 18ZM5.64 4.22C5.25 3.83 4.61 3.83 4.22 4.22C3.83 4.61 3.83 5.25 4.22 5.64L5.64 7.05C6.03 7.44 6.66 7.44 7.05 7.05C7.44 6.66 7.44 6.03 7.05 5.64L5.64 4.22ZM18.36 16.95L16.95 18.36C16.56 18.75 16.56 19.39 16.95 19.78C17.34 20.17 17.97 20.17 18.36 19.78L19.78 18.36C20.17 17.97 20.17 17.34 19.78 16.95C19.39 16.56 18.75 16.56 18.36 16.95ZM16.95 5.64C17.34 5.25 17.34 4.61 16.95 4.22C16.56 3.83 15.93 3.83 15.54 4.22L14.12 5.64C13.73 6.03 13.73 6.66 14.12 7.05C14.51 7.44 15.15 7.44 15.54 7.05L16.95 5.64ZM7.05 16.95C6.66 16.56 6.03 16.56 5.64 16.95L4.22 18.36C3.83 18.75 3.83 19.39 4.22 19.78C4.61 20.17 5.25 20.17 5.64 19.78L7.05 18.36C7.44 17.97 7.44 17.34 7.05 16.95Z" fill="currentColor"/>
</svg>