<?xml version="1.0" standalone="no"?>
<svg xmlns="http://www.w3.org/2000/svg" width="24" height="24"><rect width="24" height="24" opacity="0"></rect><g><path d="M15.53 11.3L15.55 6.96Q15.55 6.29 15.23 5.74Q14.9 5.18 14.35 4.85Q13.8 4.51 13.15 4.51Q12.46 4.51 11.89 4.85Q11.33 5.18 11.02 5.74Q10.7 6.29 10.7 6.94L10.68 14.28Q10.68 14.62 10.5 14.72Q10.32 14.83 10.03 14.71Q9.74 14.62 9.74 14.62Q8.9 14.3 8.21 14.1Q7.51 13.9 6.98 13.97Q6.43 14.02 6 14.3Q5.57 14.59 5.35 15.02Q5.04 15.7 5.24 16.2Q5.45 16.7 5.95 17.33Q6.12 17.52 6.26 17.74L9.89 21.89Q10.25 22.3 10.75 22.52Q11.26 22.75 11.81 22.75L18.29 22.8Q19.2 22.8 19.91 22.21Q20.62 21.62 20.81 20.71L21.96 14.57Q22.1 13.85 21.71 13.24Q21.31 12.62 20.59 12.46ZM19.49 20.45Q19.39 20.88 19.06 21.17Q18.72 21.46 18.29 21.46L11.83 21.43Q11.57 21.43 11.34 21.32Q11.11 21.22 10.92 21L6.65 16.13Q6.46 15.82 6.58 15.6Q6.65 15.43 6.86 15.37Q7.08 15.31 7.27 15.31Q7.56 15.31 7.99 15.43Q8.42 15.55 8.98 15.77Q9.1 15.79 9.22 15.84Q9.84 16.1 10.44 16.14Q11.04 16.18 11.47 15.84Q12.02 15.41 12.02 14.3L12.07 6.96Q12.07 6.5 12.38 6.19Q12.7 5.88 13.15 5.88Q13.58 5.88 13.91 6.19Q14.23 6.5 14.23 6.96L14.21 11.33Q14.21 11.81 14.51 12.18Q14.81 12.55 15.26 12.65L20.3 13.78Q20.5 13.82 20.6 13.97Q20.71 14.11 20.66 14.3L19.49 20.45Z" fill="rgba(0,0,0,0.9019607843137255)"></path><path d="M3.5 15.26Q3.6 14.45 4.14 13.78Q4.68 13.1 5.47 12.82Q5.76 12.72 5.89 12.43Q6.02 12.14 5.9 11.86Q5.81 11.57 5.53 11.44Q5.26 11.3 4.97 11.4Q3.77 11.83 2.96 12.84Q2.16 13.85 2.02 15.07Q1.85 16.54 2.46 17.54Q3.07 18.55 3.67 19.1L3.7 19.13L3.84 19.2Q4.08 19.3 4.32 19.25Q4.56 19.2 4.75 19.01Q4.97 18.79 4.92 18.47Q4.87 18.14 4.63 17.95L4.61 17.93Q4.15 17.47 3.77 16.85Q3.38 16.22 3.5 15.26ZM8.4 7.46Q8.69 7.46 8.92 7.25Q9.14 7.03 9.14 6.72Q9.14 5.62 9.68 4.69Q10.22 3.77 11.15 3.23Q12.07 2.69 13.18 2.69Q14.26 2.69 15.19 3.23Q16.13 3.77 16.67 4.69Q17.21 5.62 17.21 6.72Q17.21 7.03 17.42 7.25Q17.64 7.46 17.95 7.46Q18.26 7.46 18.48 7.25Q18.7 7.03 18.7 6.72Q18.7 5.23 17.95 3.96Q17.21 2.69 15.94 1.94Q14.66 1.2 13.18 1.2Q11.69 1.2 10.4 1.94Q9.12 2.69 8.38 3.96Q7.63 5.23 7.63 6.72Q7.63 7.03 7.86 7.25Q8.09 7.46 8.4 7.46Z" fill="rgba(0,0,0,0.9019607843137255)"></path></g></svg>