<?xml version="1.0" standalone="no"?>
<svg xmlns="http://www.w3.org/2000/svg" width="24" height="24"><rect width="24" height="24" opacity="0"></rect><g><path d="M12.74 20.5L12.74 3.5L13.87 3.5Q14.18 3.5 14.4 3.29Q14.62 3.07 14.62 2.76Q14.62 2.45 14.4 2.23Q14.18 2.02 13.87 2.02L10.13 2.02Q9.82 2.02 9.59 2.23Q9.36 2.45 9.36 2.76Q9.36 3.07 9.59 3.29Q9.82 3.5 10.13 3.5L11.23 3.5L11.23 20.5L10.13 20.5Q9.82 20.5 9.59 20.71Q9.36 20.93 9.36 21.24Q9.36 21.55 9.59 21.77Q9.82 21.98 10.13 21.98L13.87 21.98Q14.18 21.98 14.4 21.77Q14.62 21.55 14.62 21.24Q14.62 20.93 14.4 20.71Q14.18 20.5 13.87 20.5ZM2.88 12.07L4.51 10.44Q4.7 10.22 4.7 9.9Q4.7 9.58 4.51 9.38Q4.27 9.14 3.96 9.14Q3.65 9.14 3.43 9.38L1.42 11.4Q1.15 11.66 1.15 12.06Q1.15 12.46 1.42 12.72L3.43 14.76Q3.72 15.02 4.02 14.99Q4.32 14.95 4.51 14.76Q4.73 14.54 4.73 14.22Q4.73 13.9 4.51 13.68ZM19.49 13.68Q19.27 13.9 19.27 14.22Q19.27 14.54 19.49 14.76Q19.7 14.98 19.99 14.98Q20.28 14.98 20.57 14.74L22.56 12.72Q22.85 12.46 22.85 12.06Q22.85 11.66 22.56 11.4L20.57 9.38L20.52 9.34Q20.3 9.14 20 9.16Q19.7 9.17 19.51 9.38Q19.27 9.58 19.27 9.9Q19.27 10.22 19.51 10.44L21.12 12.07L19.49 13.68Z" fill="rgba(0,0,0,0.9019607843137255)"></path></g></svg>