<svg width="24" height="24" viewBox="0 0 24 24" fill="none" xmlns="http://www.w3.org/2000/svg">
<path d="M19.14 12.94C19.16 12.78 19.17 12.61 19.17 12.44C19.17 12.27 19.16 12.1 19.14 11.94L21.16 10.31C21.34 10.17 21.39 9.91 21.28 9.71L19.37 6.4C19.26 6.2 19.02 6.12 18.81 6.2L16.43 7.16C15.93 6.77 15.39 6.45 14.81 6.21L14.45 3.67C14.42 3.45 14.23 3.29 14 3.29H10.18C9.95 3.29 9.76 3.45 9.73 3.67L9.37 6.21C8.79 6.45 8.25 6.77 7.75 7.16L5.37 6.19C5.16 6.11 4.92 6.19 4.81 6.39L2.9 9.7C2.79 9.9 2.84 10.16 3.02 10.3L5.04 11.93C5.02 12.1 5.01 12.27 5.01 12.44C5.01 12.61 5.02 12.78 5.04 12.94L3.02 14.57C2.84 14.71 2.79 14.97 2.9 15.17L4.81 18.48C4.92 18.68 5.16 18.76 5.37 18.68L7.75 17.71C8.25 18.1 8.79 18.42 9.37 18.66L9.73 21.2C9.76 21.42 9.95 21.58 10.18 21.58H14C14.23 21.58 14.42 21.42 14.45 21.2L14.81 18.66C15.39 18.42 15.93 18.1 16.43 17.71L18.81 18.68C19.02 18.76 19.26 18.68 19.37 18.48L21.28 15.17C21.39 14.97 21.34 14.71 21.16 14.57L19.14 12.94ZM12.09 15.6C10.38 15.6 8.99 14.21 8.99 12.5C8.99 10.79 10.38 9.4 12.09 9.4C13.8 9.4 15.19 10.79 15.19 12.5C15.19 14.21 13.8 15.6 12.09 15.6Z" fill="currentColor"/>
</svg>